<?xml version="1.0" encoding="UTF-8"?>
<svg id="Layer_1" data-name="Layer 1" xmlns="http://www.w3.org/2000/svg" viewBox="0 0 31.84 47.56">
  <defs>
    <style>
      .cls-1 {
        fill: #030f4f;
      }
    </style>
  </defs>
  <path class="cls-1" d="M6.84,19.56c-2.56-1.43-4.77-3.44-6.1-4.48-.84,2.56-.93,5.12-.44,7.43,1.18,5.71,6.05,9.89,12.94,8.46,7.83-1.63,12.35-11.27,10.83-21.01C22.93,2.68,17.62-1.06,11.42.27,6.15,1.35,2.66,6.22,3.69,11.14c.94,4.53,6.05,7.48,11.71,6.3,7.97-1.67,11.86-4.68,16.44-12.89l-4.77-2.81c-3,6.25-6.4,9.15-12.01,10.33-2.66.54-4.97-.3-5.46-2.56-.49-2.41.84-3.84,2.41-4.18,1.72-.35,3.98.44,4.58,4.63,1.38,9.65-.24,13.83-4.28,14.66-3.44.69-5.51-2.17-5.51-5.12h0l.05.05h0Z"/>
  <path class="cls-1" d="M12.95,47.56c3.05,0,5.51-2.46,5.51-5.51s-2.46-5.51-5.51-5.51-5.51,2.46-5.51,5.51,2.46,5.51,5.51,5.51Z"/>
</svg>